<svg xmlns="http://www.w3.org/2000/svg" width="800px" height="600px" viewBox="0 0 800 600" version="1.1">
  <g stroke="none" stroke-width="1" fill="none" fill-rule="evenodd">
    <g transform="translate(30, 30)">
      <!-- Laptop -->
      <rect fill="#f4f5fc" x="150" y="100" width="400" height="250" rx="20"></rect>
      <rect fill="#1A2B4B" x="150" y="100" width="400" height="200" rx="10"></rect>
      <rect fill="#FFFFFF" x="170" y="120" width="360" height="160" rx="5"></rect>
      
      <!-- Credit Card -->
      <g transform="translate(580, 50)">
        <rect fill="#FFD700" x="0" y="0" width="120" height="80" rx="10"></rect>
        <rect fill="#FFFFFF" opacity="0.3" x="15" y="50" width="90" height="20" rx="5"></rect>
        <rect fill="#FFFFFF" opacity="0.5" x="15" y="15" width="60" height="10" rx="2"></rect>
        <circle fill="#1A2B4B" cx="90" cy="25" r="15"></circle>
        <circle fill="#FFFFFF" opacity="0.6" cx="75" cy="25" r="15"></circle>
      </g>
      
      <!-- Shopping Bags -->
      <g transform="translate(100, 350)">
        <path d="M20,0 L60,0 L70,75 L10,75 Z" fill="#FF6B6B"></path>
        <path d="M30,0 C30,-20 50,-20 50,0" stroke="#FFFFFF" stroke-width="5" fill="none"></path>
        
        <path d="M90,10 L130,10 L140,85 L80,85 Z" fill="#FFD700"></path>
        <path d="M100,10 C100,-10 120,-10 120,10" stroke="#FFFFFF" stroke-width="5" fill="none"></path>
      </g>
      
      <!-- Reviews/Stars -->
      <g transform="translate(340, 140)">
        <rect fill="#f4f5fc" x="0" y="0" width="150" height="15" rx="5"></rect>
        <g transform="translate(5, 0)">
          <circle fill="#FF6B6B" cx="7.5" cy="7.5" r="7.5"></circle>
          <circle fill="#FF6B6B" cx="27.5" cy="7.5" r="7.5"></circle>
          <circle fill="#FF6B6B" cx="47.5" cy="7.5" r="7.5"></circle>
          <circle fill="#FF6B6B" cx="67.5" cy="7.5" r="7.5"></circle>
          <circle fill="#FF6B6B" cx="87.5" cy="7.5" r="7.5"></circle>
        </g>
      </g>
      
      <!-- Product View - Shoe -->
      <g transform="translate(500, 150)">
        <path d="M20,10 C30,5 40,0 50,0 C65,0 80,10 85,20 C90,30 90,40 80,50 C70,60 50,50 40,45 C30,40 10,30 10,20 C10,15 15,12 20,10 Z" fill="#FF6B6B"></path>
        <path d="M40,45 C40,45 50,40 55,35 C60,30 70,25 70,35 C70,45 55,45 40,45 Z" fill="#FFFFFF" opacity="0.3"></path>
        <rect fill="#1A2B4B" x="20" y="55" width="60" height="10" rx="5"></rect>
      </g>
      
      <!-- Heart Icon -->
      <g transform="translate(700, 150)">
        <circle fill="#FF6B6B" opacity="0.2" cx="25" cy="25" r="25"></circle>
        <path d="M25,35 C25,35 15,25 15,20 C15,13 25,13 25,20 C25,13 35,13 35,20 C35,25 25,35 25,35 Z" fill="#FF6B6B"></path>
      </g>
      
      <!-- Rating Stars at Bottom -->
      <g transform="translate(350, 200)">
        <rect fill="#f4f5fc" x="0" y="0" width="150" height="10" rx="5"></rect>
        <rect fill="#f4f5fc" x="0" y="20" width="120" height="10" rx="5"></rect>
        <rect fill="#f4f5fc" x="0" y="40" width="140" height="10" rx="5"></rect>
      </g>
      
      <!-- Dollar Signs -->
      <g transform="translate(550, 300)">
        <text font-family="Arial" font-size="24" font-weight="bold" fill="#1A2B4B">$</text>
      </g>
      <g transform="translate(670, 350)">
        <text font-family="Arial" font-size="24" font-weight="bold" fill="#1A2B4B">$</text>
      </g>
    </g>
  </g>
</svg>